<svg width="1129" height="3357" viewBox="0 0 1129 3357" fill="none" xmlns="http://www.w3.org/2000/svg">
<path d="M1090.12 1.05118C1230.22 304.742 955.359 394.237 681.461 601.428C546.846 722.797 445.347 1037.16 762.184 1232.08C1087.02 1431.91 990.332 1664.2 730 1782C536.291 1869.66 355.655 1731.55 297 1731.55C238.345 1731.55 168 1699.2 80 1877.86C-7.99996 2056.52 79.0299 2225.98 297 2246.16C514.97 2266.34 723.685 2155.9 863.612 2203.11C1028.59 2258.78 1122.79 2422.75 983.353 2539.05C843.919 2655.36 744.724 2513.11 756.174 2443.63C771.264 2352.07 887.847 2324.16 878.901 2462.83C869.954 2601.5 403.609 2550.68 297 2602.57C-37.7082 2765.48 7.96574 3268.35 -4.71195 3356.32" stroke="black" stroke-width="0.5" stroke-dasharray="9.5 9.5"/>
</svg>
