<svg width="80" height="16" viewBox="0 0 80 16" fill="none" xmlns="http://www.w3.org/2000/svg">
<path d="M3.88334 14L4.96668 9.31671L1.33334 6.16671L6.13334 5.75004L8.00001 1.33337L9.86668 5.75004L14.6667 6.16671L11.0333 9.31671L12.1167 14L8.00001 11.5167L3.88334 14Z" fill="#FFCD29"/>
<path d="M19.8833 14L20.9667 9.31671L17.3333 6.16671L22.1333 5.75004L24 1.33337L25.8667 5.75004L30.6667 6.16671L27.0333 9.31671L28.1167 14L24 11.5167L19.8833 14Z" fill="#FFCD29"/>
<path d="M35.8833 14L36.9667 9.31671L33.3333 6.16671L38.1333 5.75004L40 1.33337L41.8667 5.75004L46.6667 6.16671L43.0333 9.31671L44.1167 14L40 11.5167L35.8833 14Z" fill="#FFCD29"/>
<path d="M51.8833 14L52.9667 9.31671L49.3333 6.16671L54.1333 5.75004L56 1.33337L57.8667 5.75004L62.6667 6.16671L59.0333 9.31671L60.1167 14L56 11.5167L51.8833 14Z" fill="#FFCD29"/>
<path d="M67.8833 14L68.9667 9.31671L65.3333 6.16671L70.1333 5.75004L72 1.33337L73.8667 5.75004L78.6667 6.16671L75.0333 9.31671L76.1167 14L72 11.5167L67.8833 14Z" fill="#504E4E" fill-opacity="0.51"/>
</svg>
