<svg width="25" height="26" viewBox="0 0 25 26" fill="none" xmlns="http://www.w3.org/2000/svg">
<path d="M18.8842 17.592L23.2279 21.9347L21.7928 23.3697L17.4501 19.026C15.8343 20.3213 13.8245 21.0259 11.7535 21.0229C6.71512 21.0229 2.62598 16.9338 2.62598 11.8954C2.62598 6.85696 6.71512 2.76782 11.7535 2.76782C16.7919 2.76782 20.8811 6.85696 20.8811 11.8954C20.884 13.9663 20.1795 15.9761 18.8842 17.592ZM16.8497 16.8395C18.1366 15.5157 18.8553 13.7415 18.8527 11.8954C18.8527 7.97357 15.6753 4.79617 11.7535 4.79617C7.83172 4.79617 4.65432 7.97357 4.65432 11.8954C4.65432 15.8172 7.83172 18.9946 11.7535 18.9946C13.5997 18.9972 15.3738 18.2784 16.6976 16.9916L16.8497 16.8395Z" fill="#504E4E"/>
</svg>
