<svg width="25" height="26" viewBox="0 0 25 26" fill="none" xmlns="http://www.w3.org/2000/svg">
<path d="M12.2988 6.31743L11.7512 6.8448C11.8221 6.91841 11.9072 6.97697 12.0013 7.01696C12.0954 7.05696 12.1966 7.07757 12.2988 7.07757C12.4011 7.07757 12.5023 7.05696 12.5964 7.01696C12.6905 6.97697 12.7755 6.91841 12.8465 6.8448L12.2988 6.31743ZM9.68835 19.3211C8.15087 18.1092 6.47039 16.9257 5.13675 15.4247C3.8305 13.9521 2.91774 12.2351 2.91774 10.006H1.39648C1.39648 12.7098 2.52222 14.7726 3.99986 16.4348C5.45013 18.0676 7.29998 19.3759 8.74619 20.5158L9.68835 19.3211ZM2.91774 10.006C2.91774 7.8255 4.14996 5.99593 5.83247 5.22618C7.46732 4.47873 9.66401 4.6765 11.7512 6.8448L12.8465 5.79107C10.3719 3.21812 7.49572 2.79318 5.19963 3.84285C2.95425 4.8702 1.39648 7.25554 1.39648 10.006H2.91774ZM8.74619 20.5158C9.26646 20.9256 9.82425 21.3617 10.3891 21.6923C10.954 22.0229 11.5991 22.2906 12.2988 22.2906V20.7694C11.9844 20.7694 11.6153 20.6477 11.1569 20.3789C10.6975 20.1112 10.2218 19.742 9.68835 19.3211L8.74619 20.5158ZM15.8515 20.5158C17.2977 19.3749 19.1475 18.0686 20.5978 16.4348C22.0755 14.7716 23.2012 12.7098 23.2012 10.006H21.6799C21.6799 12.2351 20.7672 13.9521 19.4609 15.4247C18.1273 16.9257 16.4468 18.1092 14.9093 19.3211L15.8515 20.5158ZM23.2012 10.006C23.2012 7.25554 21.6444 4.8702 19.398 3.84285C17.102 2.79318 14.2278 3.21812 11.7512 5.79006L12.8465 6.8448C14.9337 4.67751 17.1303 4.47873 18.7652 5.22618C20.4477 5.99593 21.6799 7.82449 21.6799 10.006H23.2012ZM14.9093 19.3211C14.3759 19.742 13.9002 20.1112 13.4408 20.3789C12.9814 20.6467 12.6132 20.7694 12.2988 20.7694V22.2906C12.9986 22.2906 13.6436 22.0219 14.2085 21.6923C14.7744 21.3617 15.3312 20.9256 15.8515 20.5158L14.9093 19.3211Z" fill="#504E4E"/>
</svg>
