<svg width="25" height="26" viewBox="0 0 25 26" fill="none" xmlns="http://www.w3.org/2000/svg">
<path d="M4.5785 17.4277C3.70834 13.947 3.27326 12.2077 4.18703 11.0374C5.1008 9.86703 6.89487 9.86703 10.482 9.86703H15.1776C18.7658 9.86703 20.5588 9.86703 21.4726 11.0374C22.3864 12.2077 21.9513 13.9481 21.0811 17.4277C20.5274 19.6416 20.2515 20.7481 19.426 21.3931C18.6004 22.0371 17.4595 22.0371 15.1776 22.0371H10.482C8.20011 22.0371 7.05917 22.0371 6.23363 21.3931C5.4081 20.7481 5.13123 19.6416 4.5785 17.4277Z" stroke="#504E4E" stroke-width="1.52126"/>
<path d="M20.4361 10.3741L19.716 7.73219C19.4381 6.71295 19.2992 6.20384 19.0142 5.81946C18.7301 5.43759 18.3442 5.14342 17.9007 4.9706C17.4544 4.79617 16.9271 4.79617 15.8723 4.79617M5.22351 10.3741L5.94357 7.73219C6.22146 6.71295 6.3604 6.20384 6.64538 5.81946C6.92953 5.43759 7.31543 5.14342 7.75894 4.9706C8.20518 4.79617 8.73255 4.79617 9.78729 4.79617" stroke="#504E4E" stroke-width="1.52126"/>
<path d="M9.78735 4.79617C9.78735 4.52719 9.8942 4.26924 10.0844 4.07904C10.2746 3.88885 10.5326 3.782 10.8015 3.782H14.8582C15.1272 3.782 15.3851 3.88885 15.5753 4.07904C15.7655 4.26924 15.8724 4.52719 15.8724 4.79617C15.8724 5.06514 15.7655 5.3231 15.5753 5.5133C15.3851 5.70349 15.1272 5.81034 14.8582 5.81034H10.8015C10.5326 5.81034 10.2746 5.70349 10.0844 5.5133C9.8942 5.3231 9.78735 5.06514 9.78735 4.79617Z" stroke="#504E4E" stroke-width="1.52126"/>
</svg>
